# xmcd CD database file
#
# Track frame offsets:
#	150
#	17991
#	33343
#	47626
#	61826
#	77298
#	95090
#	111586
#	126858
#	139514
#	155866
#	166330
#
# Disc length: 2537 seconds
#
# Revision: 0
# Processed by: cddbd v1.5.2PL0 Copyright (c) Steve Scherf et al.
# Submitted via: CDex 1.72
#
DISCID=9d09e70c
DTITLE=B'ANN GRANT - No Place Like Home
DYEAR=2005
DGENRE=Country
TTITLE0=No Place Like Home
TTITLE1=Keep Me Here
TTITLE2=Ride Around
TTITLE3=That's What Love Is About
TTITLE4=Nothin' Like You
TTITLE5=I'm Through
TTITLE6=Runnin' 'Round
TTITLE7=What Are You Doing On My Mind
TTITLE8=Twenty Nine And Holding
TTITLE9=Old TIme Movie
TTITLE10=I'm Through Being Blue
TTITLE11=You Are My Hero
EXTD=YEAR: 2005
EXTT0=
EXTT1=
EXTT2=
EXTT3=
EXTT4=
EXTT5=
EXTT6=
EXTT7=
EXTT8=
EXTT9=
EXTT10=
EXTT11=
PLAYORDER=
